<svg width="462" height="617" viewBox="0 0 462 617" fill="none" xmlns="http://www.w3.org/2000/svg">
<path d="M401.7 398.963C381.416 513.997 207.291 567.151 92.8008 546.963C-21.6889 526.776 93.0173 407.997 113.301 292.963C133.584 177.93 131.21 0.275601 245.7 20.4632C360.189 40.6509 421.983 283.93 401.7 398.963Z" fill="#2AD883"/>
<path d="M210.966 41.9556C239.422 46.9732 264.653 65.8631 286.187 93.253C307.719 120.64 325.52 156.483 339.12 195.312C366.326 272.98 376.683 362.469 366.561 419.877C356.462 477.15 308.046 519.095 247.738 544.21C187.442 569.32 115.385 577.547 58.2403 567.471C29.7082 562.44 15.6295 551.303 10.6804 535.783C5.70694 520.187 9.8843 499.996 18.3335 476.701C26.778 453.419 39.4225 427.198 51.2533 399.538C63.0739 371.903 74.0648 342.867 79.146 314.05C84.2191 285.279 87.8773 252.583 92.2936 220.084C96.7119 187.57 101.891 155.241 110.006 127.144C118.124 99.0388 129.165 75.2307 145.265 59.708C161.336 44.2136 182.489 36.9345 210.966 41.9556Z" stroke="#C6FFE3"/>
</svg>
