<svg width="60" height="60" viewBox="0 0 60 60" fill="none" xmlns="http://www.w3.org/2000/svg">
<path d="M7.93455 51.7777L23.8446 35.8677M43.8796 28.7927L39.1171 43.0802C39.041 43.3092 38.9109 43.5165 38.7377 43.6845C38.5645 43.8525 38.3533 43.9762 38.1221 44.0452L8.92705 52.7227C8.66403 52.8008 8.38462 52.8053 8.11923 52.7356C7.85384 52.666 7.61264 52.5248 7.42187 52.3276C7.2311 52.1304 7.09808 51.8847 7.03729 51.6171C6.97649 51.3496 6.99024 51.0704 7.07705 50.8102L16.5571 22.3752C16.625 22.171 16.7361 21.9838 16.8827 21.8264C17.0294 21.6689 17.2082 21.5449 17.4071 21.4627L30.8746 15.9177C31.1483 15.8046 31.4495 15.7751 31.74 15.8329C32.0305 15.8908 32.2974 16.0334 32.5071 16.2427L43.517 27.2577C43.714 27.4546 43.8523 27.7026 43.9163 27.9737C43.9804 28.2448 43.9676 28.5284 43.8796 28.7927Z" stroke="#2AD883" stroke-width="2.5" stroke-linecap="round" stroke-linejoin="round"/>
<path d="M44.1747 27.9127L51.2447 20.8402C52.182 19.9025 52.7086 18.631 52.7086 17.3052C52.7086 15.9794 52.182 14.7078 51.2447 13.7702L45.9447 8.46518C45.4804 8.00067 44.9291 7.6322 44.3223 7.3808C43.7155 7.1294 43.0652 7 42.4084 7C41.7516 7 41.1013 7.1294 40.4945 7.3808C39.8878 7.6322 39.3365 8.00067 38.8722 8.46518L31.8022 15.5377M29.1472 30.5627C28.7988 30.2145 28.3853 29.9384 27.9303 29.75C27.4752 29.5616 26.9875 29.4648 26.495 29.4649C26.0025 29.465 25.5149 29.5621 25.0599 29.7507C24.605 29.9393 24.1916 30.2156 23.8434 30.5639C23.4953 30.9123 23.2191 31.3258 23.0307 31.7808C22.8424 32.2359 22.7455 32.7236 22.7456 33.2161C22.7457 33.7086 22.8428 34.1962 23.0314 34.6512C23.22 35.1061 23.4963 35.5195 23.8447 35.8677C24.5482 36.5708 25.5022 36.9657 26.4968 36.9655C27.4915 36.9653 28.4453 36.5699 29.1484 35.8664C29.8516 35.1629 30.2465 34.2089 30.2462 33.2143C30.246 32.2197 29.8507 31.2658 29.1472 30.5627Z" stroke="#2AD883" stroke-width="2.5" stroke-linecap="round" stroke-linejoin="round"/>
</svg>
